<mxfile host="app.diagrams.net" modified="2023-09-22T08:34:12.265Z" agent="Mozilla/5.0 (Windows NT 10.0; Win64; x64) AppleWebKit/537.36 (KHTML, like Gecko) Chrome/116.0.0.0 Safari/537.36" etag="a6GtJBueuI5gmpOFpvp4" version="21.8.0" type="github">
  <diagram name="第 1 页" id="sQGJP1BZX2xEVuhKLmyP">
    <mxGraphModel dx="1195" dy="658" grid="1" gridSize="10" guides="1" tooltips="1" connect="1" arrows="1" fold="1" page="1" pageScale="1" pageWidth="827" pageHeight="1169" math="0" shadow="0">
      <root>
        <mxCell id="0" />
        <mxCell id="1" parent="0" />
        <mxCell id="mLJRDm1sOdOWoueKn535-1" value="用户" style="shape=table;startSize=75;container=1;collapsible=0;childLayout=tableLayout;fixedRows=1;rowLines=1;fontStyle=1;align=center;resizeLast=1;" vertex="1" parent="1">
          <mxGeometry x="530" y="210" width="100" height="75" as="geometry" />
        </mxCell>
        <mxCell id="mLJRDm1sOdOWoueKn535-2" value="音频记录" style="shape=table;startSize=75;container=1;collapsible=0;childLayout=tableLayout;fixedRows=1;rowLines=1;fontStyle=1;align=center;resizeLast=1;" vertex="1" parent="1">
          <mxGeometry x="470" y="400" width="100" height="75" as="geometry" />
        </mxCell>
        <mxCell id="mLJRDm1sOdOWoueKn535-3" value="音频素材" style="shape=table;startSize=75;container=1;collapsible=0;childLayout=tableLayout;fixedRows=1;rowLines=1;fontStyle=1;align=center;resizeLast=1;" vertex="1" parent="1">
          <mxGeometry x="268" y="400" width="106" height="75" as="geometry" />
        </mxCell>
        <mxCell id="mLJRDm1sOdOWoueKn535-4" value="社区帖子" style="shape=table;startSize=75;container=1;collapsible=0;childLayout=tableLayout;fixedRows=1;rowLines=1;fontStyle=1;align=center;resizeLast=1;" vertex="1" parent="1">
          <mxGeometry x="760" y="400" width="113" height="75" as="geometry" />
        </mxCell>
        <mxCell id="mLJRDm1sOdOWoueKn535-5" value="评论" style="shape=table;startSize=75;container=1;collapsible=0;childLayout=tableLayout;fixedRows=1;rowLines=1;fontStyle=1;align=center;resizeLast=1;" vertex="1" parent="1">
          <mxGeometry x="590" y="400" width="100" height="75" as="geometry" />
        </mxCell>
        <mxCell id="mLJRDm1sOdOWoueKn535-6" value="设备信息" style="shape=table;startSize=75;container=1;collapsible=0;childLayout=tableLayout;fixedRows=1;rowLines=1;fontStyle=1;align=center;resizeLast=1;" vertex="1" parent="1">
          <mxGeometry x="720" y="210" width="100" height="75" as="geometry" />
        </mxCell>
        <mxCell id="mLJRDm1sOdOWoueKn535-7" value="隐私设置" style="shape=table;startSize=75;container=1;collapsible=0;childLayout=tableLayout;fixedRows=1;rowLines=1;fontStyle=1;align=center;resizeLast=1;" vertex="1" parent="1">
          <mxGeometry x="359" y="80" width="111" height="75" as="geometry" />
        </mxCell>
        <mxCell id="mLJRDm1sOdOWoueKn535-8" value="技术支持记录" style="shape=table;startSize=75;container=1;collapsible=0;childLayout=tableLayout;fixedRows=1;rowLines=1;fontStyle=1;align=center;resizeLast=1;" vertex="1" parent="1">
          <mxGeometry x="525.5" y="40" width="109" height="75" as="geometry" />
        </mxCell>
        <mxCell id="mLJRDm1sOdOWoueKn535-9" value="编辑记录" style="shape=table;startSize=75;container=1;collapsible=0;childLayout=tableLayout;fixedRows=1;rowLines=1;fontStyle=1;align=center;resizeLast=1;" vertex="1" parent="1">
          <mxGeometry x="720" y="50" width="100" height="75" as="geometry" />
        </mxCell>
        <mxCell id="mLJRDm1sOdOWoueKn535-10" value="音频素材库" style="shape=table;startSize=75;container=1;collapsible=0;childLayout=tableLayout;fixedRows=1;rowLines=1;fontStyle=1;align=center;resizeLast=1;" vertex="1" parent="1">
          <mxGeometry x="274" y="210" width="100" height="75" as="geometry" />
        </mxCell>
        <mxCell id="mLJRDm1sOdOWoueKn535-11" value="设备同步记录" style="shape=table;startSize=75;container=1;collapsible=0;childLayout=tableLayout;fixedRows=1;rowLines=1;fontStyle=1;align=center;resizeLast=1;" vertex="1" parent="1">
          <mxGeometry x="920" y="210" width="127" height="75" as="geometry" />
        </mxCell>
        <mxCell id="mLJRDm1sOdOWoueKn535-12" value="录制" style="curved=1;startArrow=ERmandOne;startSize=10;;endArrow=ERmany;endSize=10;;exitX=0.5;exitY=1;entryX=0.498466796875;entryY=0;rounded=0;exitDx=0;exitDy=0;" edge="1" parent="1" source="mLJRDm1sOdOWoueKn535-1" target="mLJRDm1sOdOWoueKn535-2">
          <mxGeometry x="-0.0033" relative="1" as="geometry">
            <mxPoint as="offset" />
          </mxGeometry>
        </mxCell>
        <mxCell id="mLJRDm1sOdOWoueKn535-13" value="上传" style="curved=1;startArrow=ERmandOne;startSize=10;;endArrow=ERmany;endSize=10;;exitX=0.00326171875;exitY=0.6040775517149856;entryX=0.5;entryY=0;rounded=0;entryDx=0;entryDy=0;" edge="1" parent="1" source="mLJRDm1sOdOWoueKn535-1" target="mLJRDm1sOdOWoueKn535-3">
          <mxGeometry relative="1" as="geometry" />
        </mxCell>
        <mxCell id="mLJRDm1sOdOWoueKn535-14" value="发布" style="curved=1;startArrow=ERmandOne;startSize=10;;endArrow=ERmany;endSize=10;;exitX=1;exitY=0.5;entryX=0.4971048810840708;entryY=0;rounded=0;exitDx=0;exitDy=0;" edge="1" parent="1" source="mLJRDm1sOdOWoueKn535-1" target="mLJRDm1sOdOWoueKn535-4">
          <mxGeometry relative="1" as="geometry" />
        </mxCell>
        <mxCell id="mLJRDm1sOdOWoueKn535-15" value="评论" style="curved=1;startArrow=ERmandOne;startSize=10;;endArrow=ERmany;endSize=10;;exitX=0.5;exitY=1;entryX=0.5;entryY=0;rounded=0;exitDx=0;exitDy=0;entryDx=0;entryDy=0;" edge="1" parent="1" source="mLJRDm1sOdOWoueKn535-1" target="mLJRDm1sOdOWoueKn535-5">
          <mxGeometry relative="1" as="geometry" />
        </mxCell>
        <mxCell id="mLJRDm1sOdOWoueKn535-16" value="拥有" style="curved=1;startArrow=ERmandOne;startSize=10;;endArrow=ERmany;endSize=10;;exitX=1;exitY=0.5;entryX=0;entryY=0.5;rounded=0;exitDx=0;exitDy=0;entryDx=0;entryDy=0;" edge="1" parent="1" source="mLJRDm1sOdOWoueKn535-1" target="mLJRDm1sOdOWoueKn535-6">
          <mxGeometry relative="1" as="geometry" />
        </mxCell>
        <mxCell id="mLJRDm1sOdOWoueKn535-17" value="设置" style="curved=1;startArrow=ERmandOne;startSize=10;;endArrow=ERmany;endSize=10;;exitX=0.5;exitY=0;entryX=0.5;entryY=1;rounded=0;exitDx=0;exitDy=0;entryDx=0;entryDy=0;" edge="1" parent="1" source="mLJRDm1sOdOWoueKn535-1" target="mLJRDm1sOdOWoueKn535-7">
          <mxGeometry relative="1" as="geometry" />
        </mxCell>
        <mxCell id="mLJRDm1sOdOWoueKn535-18" value="已创建的支持请求" style="curved=1;startArrow=ERmandOne;startSize=10;;endArrow=ERmany;endSize=10;;exitX=0.5;exitY=0;rounded=0;exitDx=0;exitDy=0;entryX=0.5;entryY=1;entryDx=0;entryDy=0;" edge="1" parent="1" source="mLJRDm1sOdOWoueKn535-1" target="mLJRDm1sOdOWoueKn535-8">
          <mxGeometry relative="1" as="geometry">
            <mxPoint x="580" y="130" as="targetPoint" />
          </mxGeometry>
        </mxCell>
        <mxCell id="mLJRDm1sOdOWoueKn535-19" value="编辑的音频记录" style="curved=1;startArrow=ERmandOne;startSize=10;;endArrow=ERmany;endSize=10;;exitX=0.5;exitY=0;entryX=0.5;entryY=1;rounded=0;exitDx=0;exitDy=0;entryDx=0;entryDy=0;" edge="1" parent="1" source="mLJRDm1sOdOWoueKn535-1" target="mLJRDm1sOdOWoueKn535-9">
          <mxGeometry relative="1" as="geometry" />
        </mxCell>
        <mxCell id="mLJRDm1sOdOWoueKn535-20" value="包含" style="curved=1;startArrow=ERoneToMany;startSize=10;;endArrow=ERmandOne;endSize=10;;exitX=0;exitY=0.5;entryX=1;entryY=0.5;rounded=0;exitDx=0;exitDy=0;entryDx=0;entryDy=0;" edge="1" parent="1" source="mLJRDm1sOdOWoueKn535-2" target="mLJRDm1sOdOWoueKn535-3">
          <mxGeometry relative="1" as="geometry" />
        </mxCell>
        <mxCell id="mLJRDm1sOdOWoueKn535-21" value="属于" style="curved=1;startArrow=ERoneToMany;startSize=10;;endArrow=ERmandOne;endSize=10;;exitX=0.5;exitY=0;entryX=0.5;entryY=1;rounded=0;exitDx=0;exitDy=0;entryDx=0;entryDy=0;" edge="1" parent="1" source="mLJRDm1sOdOWoueKn535-3" target="mLJRDm1sOdOWoueKn535-10">
          <mxGeometry relative="1" as="geometry">
            <Array as="points" />
          </mxGeometry>
        </mxCell>
        <mxCell id="mLJRDm1sOdOWoueKn535-22" value="属于" style="curved=1;startArrow=ERoneToMany;startSize=10;;endArrow=ERmandOne;endSize=10;;exitX=0;exitY=0.5;entryX=1;entryY=0.5;rounded=0;exitDx=0;exitDy=0;entryDx=0;entryDy=0;" edge="1" parent="1" source="mLJRDm1sOdOWoueKn535-4" target="mLJRDm1sOdOWoueKn535-5">
          <mxGeometry relative="1" as="geometry" />
        </mxCell>
        <mxCell id="mLJRDm1sOdOWoueKn535-23" value="同步于" style="curved=1;startArrow=ERoneToMany;startSize=10;;endArrow=ERmandOne;endSize=10;;exitX=1;exitY=0.5;entryX=0;entryY=0.5;rounded=0;exitDx=0;exitDy=0;entryDx=0;entryDy=0;" edge="1" parent="1" source="mLJRDm1sOdOWoueKn535-6" target="mLJRDm1sOdOWoueKn535-11">
          <mxGeometry relative="1" as="geometry">
            <Array as="points" />
          </mxGeometry>
        </mxCell>
        <mxCell id="mLJRDm1sOdOWoueKn535-24" value="帮助文档" style="shape=table;startSize=75;container=1;collapsible=0;childLayout=tableLayout;fixedRows=1;rowLines=1;fontStyle=1;align=center;resizeLast=1;" vertex="1" parent="1">
          <mxGeometry x="900" y="80" width="100" height="75" as="geometry" />
        </mxCell>
      </root>
    </mxGraphModel>
  </diagram>
</mxfile>
